<svg width="12" height="18" viewBox="0 0 12 18" fill="none" xmlns="http://www.w3.org/2000/svg"><path d="M6 9a2.97 2.97 0 115.939 0A2.97 2.97 0 016 9z" fill="#1ABCFE"/><path d="M.061 14.939a2.97 2.97 0 012.97-2.97H6v2.97a2.97 2.97 0 11-5.939 0z" fill="#0ACF83"/><path d="M6 .092V6.03h2.97a2.97 2.97 0 100-5.94H6z" fill="#FF7262"/><path d="M.061 3.061a2.97 2.97 0 002.97 2.97H6V.09H3.03A2.97 2.97 0 00.061 3.06z" fill="#F24E1E"/><path d="M.061 9a2.97 2.97 0 002.97 2.97H6V6.03H3.03A2.97 2.97 0 00.061 9z" fill="#A259FF"/></svg>