<svg width="32" height="32" viewBox="0 0 32 32" fill="none" xmlns="http://www.w3.org/2000/svg"><g clip-path="url(#clip0)"><path d="M12.384 17.423c-3.09.594-4.62 4.034-5.284 6.178a1.333 1.333 0 001.275 1.732h4.958a4 4 0 003.984-4.365 4.144 4.144 0 00-4.933-3.545z" fill="url(#paint0_linear)"/><path d="M30.667 11.972a1.333 1.333 0 00-1.334 1.333V20H24a4 4 0 00-4 4v5.333H6.667a4 4 0 01-4-4V6.667a4 4 0 014-4h14.722a1.333 1.333 0 100-2.667H6.667A6.675 6.675 0 000 6.667v18.666A6.674 6.674 0 006.667 32H21.79a6.622 6.622 0 004.713-1.952l3.544-3.544A6.622 6.622 0 0032 21.791v-8.486a1.334 1.334 0 00-1.333-1.333zm-6.048 16.19a4.03 4.03 0 01-1.952 1.067V24A1.333 1.333 0 0124 22.667h5.233a4.03 4.03 0 01-1.066 1.952l-3.548 3.544z" fill="url(#paint1_linear)"/><path d="M19.422 18.893a1.333 1.333 0 01-.943-2.276l10.47-10.47a1.257 1.257 0 000-1.78A1.2 1.2 0 0028.024 4a1.244 1.244 0 00-.904.419L16.987 15.628a1.333 1.333 0 11-1.979-1.788l10.134-11.2a3.932 3.932 0 012.809-1.307 3.98 3.98 0 012.884 1.15 3.93 3.93 0 010 5.55l-10.47 10.471a1.326 1.326 0 01-.943.39z" fill="url(#paint2_linear)"/></g><defs><linearGradient id="paint0_linear" x1="7.041" y1="17.119" x2="17.553" y2="20.771" gradientUnits="userSpaceOnUse"><stop stop-color="#5F5FF6"/><stop offset=".495" stop-color="#2C8CF4"/><stop offset="1" stop-color="#2BC48A"/></linearGradient><linearGradient id="paint1_linear" x1=".006" y1="-.885" x2="34.139" y2="8.321" gradientUnits="userSpaceOnUse"><stop stop-color="#5F5FF6"/><stop offset=".495" stop-color="#2C8CF4"/><stop offset="1" stop-color="#2BC48A"/></linearGradient><linearGradient id="paint2_linear" x1="14.668" y1=".847" x2="33.175" y2="5.769" gradientUnits="userSpaceOnUse"><stop stop-color="#5F5FF6"/><stop offset=".495" stop-color="#2C8CF4"/><stop offset="1" stop-color="#2BC48A"/></linearGradient><clipPath id="clip0"><path fill="#fff" d="M0 0h32v32H0z"/></clipPath></defs></svg>