<svg width="32" height="32" viewBox="0 0 32 32" fill="none" xmlns="http://www.w3.org/2000/svg"><g clip-path="url(#clip0)"><path d="M25.333 0H14.667A6.675 6.675 0 008 6.667v8H6.667A6.674 6.674 0 000 21.333v4A6.674 6.674 0 006.667 32h4a6.675 6.675 0 006.666-6.667V24h8A6.674 6.674 0 0032 17.333V6.667A6.675 6.675 0 0025.333 0zM14.667 21.333a4 4 0 01-4-4 4 4 0 014 4zm0 4a4 4 0 01-4 4h-4a4 4 0 01-4-4v-4a4 4 0 014-4H8A6.674 6.674 0 0014.667 24v1.333zm14.666-8a4 4 0 01-4 4h-8a6.624 6.624 0 00-1.11-3.67L24 9.885v3.448a1.333 1.333 0 102.667 0v-4a4 4 0 00-4-4h-4a1.333 1.333 0 100 2.667h3.448l-7.778 7.777a6.624 6.624 0 00-3.67-1.11v-8a4 4 0 014-4h10.666a4 4 0 014 4v10.666z" fill="url(#paint0_linear)"/></g><defs><linearGradient id="paint0_linear" x1=".006" y1="-.885" x2="34.139" y2="8.321" gradientUnits="userSpaceOnUse"><stop stop-color="#5F5FF6"/><stop offset=".495" stop-color="#2C8CF4"/><stop offset="1" stop-color="#2BC48A"/></linearGradient><clipPath id="clip0"><path fill="#fff" d="M0 0h32v32H0z"/></clipPath></defs></svg>