<svg width="123" height="17" viewBox="0 0 123 17" fill="none" xmlns="http://www.w3.org/2000/svg"><g clip-path="url(#clip0)" fill="#0E2A47"><path d="M29.444 9.7c0 5.1-3.599 7.304-7.632 7.304-4.033 0-7.648-2.199-7.648-7.303V.434h4.35v8.898c0 2.584 1.416 3.651 3.298 3.651 1.883 0 3.299-1.05 3.299-3.651V.434h4.333v9.267zm7.741 6.882h-4.35V.434h4.35v16.148zM55.35 3.051l-3.132 2.63a4.463 4.463 0 00-3.45-1.624c-2.25 0-4.056 1.77-4.056 4.463 0 2.694 1.785 4.463 4.057 4.463a4.71 4.71 0 003.514-1.623l3.1 2.65a7.949 7.949 0 01-6.492 3.035c-5.157-.045-8.606-3.656-8.606-8.525S43.734 0 48.883 0a7.879 7.879 0 016.467 3.05zM73.996 8.52c0 4.869-3.717 8.52-8.748 8.52-5.03 0-8.719-3.651-8.719-8.52 0-4.868 3.7-8.52 8.72-8.52 5.018 0 8.747 3.652 8.747 8.52zm-13.032 0c0 2.617 1.834 4.463 4.284 4.463 2.451 0 4.297-1.834 4.297-4.463s-1.846-4.463-4.297-4.463c-2.45 0-4.284 1.826-4.284 4.463zm30.807-2.219v10.281h-4.349V7.71c0-2.333-1.168-3.62-3.148-3.62-1.867 0-3.417 1.218-3.417 3.652v8.841h-4.353V.434h4.236v1.899C81.888.617 83.657 0 85.49 0c3.665 0 6.281 2.548 6.281 6.301zm14.886-1.367a13.084 13.084 0 00-5.149-1.32c-1.651 0-2.483.585-2.483 1.47 0 .884 1.165 1.164 2.633 1.383l1.433.215c3.497.536 5.449 2.102 5.449 4.836 0 3.332-2.735 5.482-7.417 5.482-2.2 0-5.084-.406-7.182-1.899l1.717-3.303a9.453 9.453 0 005.497 1.59c2.029 0 2.986-.567 2.986-1.517 0-.783-.811-1.217-2.685-1.485l-1.315-.182c-3.733-.515-5.583-2.15-5.583-4.901 0-3.315 2.564-5.275 6.816-5.275 2.34-.042 4.656.484 6.748 1.534l-1.465 3.372zM3.701 8.52l5.542-5.562L6.66.378 1.03 6.004a3.534 3.534 0 000 4.99l5.575 5.575 2.585-2.58L3.7 8.52zm114.921-.073l-5.542 5.543 2.585 2.58 5.623-5.615a3.539 3.539 0 001.035-2.497 3.523 3.523 0 00-1.035-2.498L115.713.377l-2.58 2.58 5.489 5.49z"/></g><defs><clipPath id="clip0"><path fill="#fff" d="M0 0h122.323v17H0z"/></clipPath></defs></svg>